<svg width="256" height="319" viewBox="0 0 256 319" fill="none" xmlns="http://www.w3.org/2000/svg">
<path d="M90.0109 113.536L93.9731 46.6144L12.4121 32.0366C7.16125 31.0973 3.19903 36.71 5.84179 41.343L123.871 248.324C126.297 252.576 132.436 252.551 134.825 248.278L250.56 41.3238C253.156 36.6811 249.176 31.1117 243.942 32.0654L176.859 44.2922L171.069 64.3667M90.0109 113.536C89.982 114.024 90.0671 114.512 90.2597 114.961C90.4523 115.411 90.747 115.809 91.1204 116.125C91.4938 116.44 91.9356 116.664 92.4107 116.779C92.8859 116.894 93.3813 116.897 93.8577 116.787L117.703 111.284C119.934 110.769 121.95 112.734 121.491 114.978L114.407 149.67C113.931 152.004 116.122 154 118.402 153.307L133.131 148.833C135.413 148.14 137.608 150.142 137.125 152.479L125.866 206.971C125.162 210.38 129.696 212.238 131.586 209.317L132.85 207.365L202.639 68.0854C203.809 65.7535 201.792 63.0944 199.232 63.5891L174.686 68.326C172.38 68.7706 170.418 66.6226 171.069 64.3667M90.0109 113.536L95.2791 24.5558C95.3203 23.8597 95.5917 23.197 96.0506 22.6719C96.5094 22.1469 97.1298 21.7892 97.8141 21.6551L183.461 4.87266C185.769 4.42033 187.74 6.56939 187.089 8.83104L171.069 64.3667" stroke="black" stroke-width="8" stroke-linecap="round" stroke-linejoin="round"/>
<circle cx="128" cy="294" r="21" stroke="black" stroke-width="8"/>
<path d="M149 294H247" stroke="black" stroke-width="8" stroke-linecap="round"/>
<path d="M9 294H107" stroke="black" stroke-width="8" stroke-linecap="round"/>
<path d="M129 273L129 253" stroke="black" stroke-width="8" stroke-linecap="round"/>
</svg>
